<svg width="69" height="70" viewBox="0 0 69 70" fill="none" xmlns="http://www.w3.org/2000/svg">
<path d="M30.9186 10.1904C32.9823 8.43166 36.0177 8.43166 38.0814 10.1904L41.5917 13.1818C42.476 13.9354 43.5756 14.3909 44.7339 14.4833L49.3313 14.8502C52.0341 15.0659 54.1804 17.2122 54.3961 19.9151L54.763 24.5125C54.8554 25.6707 55.3109 26.7703 56.0645 27.6547L59.056 31.1649C60.8147 33.2287 60.8147 36.264 59.056 38.3277L56.0645 41.838C55.3109 42.7224 54.8554 43.8219 54.763 44.9802L54.3961 49.5776C54.1804 52.2805 52.0341 54.4268 49.3313 54.6425L44.7339 55.0093C43.5756 55.1018 42.476 55.5572 41.5917 56.3109L38.0814 59.3023C36.0177 61.061 32.9823 61.061 30.9186 59.3023L27.4083 56.3109C26.524 55.5572 25.4244 55.1018 24.2661 55.0093L19.6687 54.6425C16.9659 54.4268 14.8196 52.2805 14.6039 49.5776L14.237 44.9802C14.1446 43.8219 13.6891 42.7224 12.9355 41.838L9.94403 38.3277C8.18532 36.264 8.18532 33.2287 9.94403 31.1649L12.9355 27.6547C13.6891 26.7703 14.1446 25.6707 14.237 24.5125L14.6039 19.9151C14.8196 17.2122 16.9659 15.0659 19.6687 14.8502L24.2661 14.4833C25.4244 14.3909 26.524 13.9354 27.4083 13.1818L30.9186 10.1904Z" stroke="#6FD8BF" stroke-opacity="0.95" stroke-width="4" stroke-linecap="round" stroke-linejoin="round"/>
<path d="M43.125 28.9963L31.625 40.4963L25.875 34.7463" stroke="#6FD8BF" stroke-opacity="0.95" stroke-width="4" stroke-linecap="round" stroke-linejoin="round"/>
</svg>
